<svg xmlns="http://www.w3.org/2000/svg" xmlns:xlink="http://www.w3.org/1999/xlink" contentStyleType="text/css" data-diagram-type="CLASS" height="605px" preserveAspectRatio="none" style="width:498px;height:605px;background:#FFFFFF;" version="1.1" viewBox="0 0 498 605" width="498px" zoomAndPan="magnify"><defs/><g><!--class course_b--><g class="entity" data-entity="course_b" data-source-line="8" data-uid="ent0002" id="entity_course_b"><rect fill="#F1F1F1" height="194.6719" rx="2.5" ry="2.5" style="stroke:#181818;stroke-width:0.5;" width="221.918" x="7" y="229.78"/><ellipse cx="82.3662" cy="245.78" fill="#FFAAAA" rx="11" ry="11" style="stroke:#181818;stroke-width:1;"/><path d="M83.21,252.53 L80.7568,252.53 L80.7568,242.28 L77.6162,242.28 L77.6162,240.1394 L86.3506,240.1394 L86.3506,242.28 L83.21,242.28 L83.21,252.53 Z " fill="#000000"/><text fill="#000000" font-family="sans-serif" font-size="14" lengthAdjust="spacing" textLength="62.6855" x="102.8662" y="250.6267">course_b</text><line style="stroke:#181818;stroke-width:0.5;" x1="8" x2="227.918" y1="261.78" y2="261.78"/><text fill="#000000" font-family="sans-serif" font-size="14" font-weight="bold" lengthAdjust="spacing" textLength="14.8203" x="13" y="278.7751">id</text><text fill="#000000" font-family="sans-serif" font-size="14" lengthAdjust="spacing" textLength="78.8936" x="27.8203" y="278.7751">: uuid &#171;PK&#187;</text><text fill="#000000" font-family="sans-serif" font-size="14" lengthAdjust="spacing" textLength="90.0635" x="13" y="295.072">title: varchar</text><text fill="#000000" font-family="sans-serif" font-size="14" lengthAdjust="spacing" textLength="114.8848" x="13" y="311.3689">description: text</text><text fill="#000000" font-family="sans-serif" font-size="14" lengthAdjust="spacing" textLength="95.9834" x="13" y="327.6657">level: varchar</text><text fill="#000000" font-family="sans-serif" font-size="14" font-style="italic" lengthAdjust="spacing" textLength="81.6484" x="13" y="343.9626">category_id</text><text fill="#000000" font-family="sans-serif" font-size="14" lengthAdjust="spacing" textLength="78.5039" x="94.6484" y="343.9626">: uuid &#171;FK&#187;</text><text fill="#000000" font-family="sans-serif" font-size="14" lengthAdjust="spacing" textLength="120.3809" x="13" y="360.2595">visibility: varchar</text><line style="stroke:#181818;stroke-width:1;" x1="8" x2="227.918" y1="367.5613" y2="367.5613"/><text fill="#000000" font-family="sans-serif" font-size="14" lengthAdjust="spacing" textLength="136.6025" x="13" y="384.5564">PK: not null, unique</text><text fill="#000000" font-family="sans-serif" font-size="14" lengthAdjust="spacing" textLength="182.6631" x="13" y="400.8532">level: hard, medium, easy</text><text fill="#000000" font-family="sans-serif" font-size="14" lengthAdjust="spacing" textLength="209.918" x="13" y="417.1501">visibility: draft, public, private</text></g><!--class category_d--><g class="entity" data-entity="category_d" data-source-line="21" data-uid="ent0003" id="entity_category_d"><rect fill="#F1F1F1" height="96.8906" rx="2.5" ry="2.5" style="stroke:#181818;stroke-width:0.5;" width="148.6025" x="43.66" y="501.45"/><ellipse cx="76.1397" cy="517.45" fill="#FFAAAA" rx="11" ry="11" style="stroke:#181818;stroke-width:1;"/><path d="M76.9834,524.2 L74.5303,524.2 L74.5303,513.95 L71.3897,513.95 L71.3897,511.8094 L80.1241,511.8094 L80.1241,513.95 L76.9834,513.95 L76.9834,524.2 Z " fill="#000000"/><text fill="#000000" font-family="sans-serif" font-size="14" lengthAdjust="spacing" textLength="77.7588" x="94.0241" y="522.2967">category_d</text><line style="stroke:#181818;stroke-width:0.5;" x1="44.66" x2="191.2625" y1="533.45" y2="533.45"/><text fill="#000000" font-family="sans-serif" font-size="14" font-weight="bold" lengthAdjust="spacing" textLength="14.8203" x="49.66" y="550.4451">id</text><text fill="#000000" font-family="sans-serif" font-size="14" lengthAdjust="spacing" textLength="78.8936" x="64.4803" y="550.4451">: uuid &#171;PK&#187;</text><text fill="#000000" font-family="sans-serif" font-size="14" lengthAdjust="spacing" textLength="90.0635" x="49.66" y="566.742">title: varchar</text><line style="stroke:#181818;stroke-width:1;" x1="44.66" x2="191.2625" y1="574.0438" y2="574.0438"/><text fill="#000000" font-family="sans-serif" font-size="14" lengthAdjust="spacing" textLength="136.6025" x="49.66" y="591.0389">PK: not null, unique</text></g><!--class lesson_d--><g class="entity" data-entity="lesson_d" data-source-line="28" data-uid="ent0004" id="entity_lesson_d"><rect fill="#F1F1F1" height="145.7813" rx="2.5" ry="2.5" style="stroke:#181818;stroke-width:0.5;" width="157.0791" x="39.42" y="7"/><ellipse cx="83.5184" cy="23" fill="#FFAAAA" rx="11" ry="11" style="stroke:#181818;stroke-width:1;"/><path d="M84.3621,29.75 L81.909,29.75 L81.909,19.5 L78.7684,19.5 L78.7684,17.3594 L87.5028,17.3594 L87.5028,19.5 L84.3621,19.5 L84.3621,29.75 Z " fill="#000000"/><text fill="#000000" font-family="sans-serif" font-size="14" lengthAdjust="spacing" textLength="60.416" x="103.9847" y="27.8467">lesson_d</text><line style="stroke:#181818;stroke-width:0.5;" x1="40.42" x2="195.4991" y1="39" y2="39"/><text fill="#000000" font-family="sans-serif" font-size="14" font-weight="bold" lengthAdjust="spacing" textLength="14.8203" x="45.42" y="55.9951">id</text><text fill="#000000" font-family="sans-serif" font-size="14" lengthAdjust="spacing" textLength="78.8936" x="60.2403" y="55.9951">: uuid &#171;PK&#187;</text><text fill="#000000" font-family="sans-serif" font-size="14" lengthAdjust="spacing" textLength="90.0635" x="45.42" y="72.292">title: varchar</text><text fill="#000000" font-family="sans-serif" font-size="14" font-style="italic" lengthAdjust="spacing" textLength="66.5752" x="45.42" y="88.5889">course_id</text><text fill="#000000" font-family="sans-serif" font-size="14" lengthAdjust="spacing" textLength="78.5039" x="111.9952" y="88.5889">: uuid &#171;FK&#187;</text><text fill="#000000" font-family="sans-serif" font-size="14" lengthAdjust="spacing" textLength="91.3896" x="45.42" y="104.8857">content: json</text><line style="stroke:#181818;stroke-width:1;" x1="40.42" x2="195.4991" y1="112.1875" y2="112.1875"/><text fill="#000000" font-family="sans-serif" font-size="14" lengthAdjust="spacing" textLength="136.6025" x="45.42" y="129.1826">PK: not null, unique</text><text fill="#000000" font-family="sans-serif" font-size="14" lengthAdjust="spacing" textLength="79.3037" x="45.42" y="145.4795">FK: not null</text></g><g class="entity" data-entity="GMN7" data-source-line="42" data-uid="ent0008" id="entity_GMN7"><path d="M264.2,299.41 L264.2,323.11 L229.17,327.11 L264.2,331.11 L264.2,354.8084 A0,0 0 0 0 264.2,354.8084 L491.721,354.8084 A0,0 0 0 0 491.721,354.8084 L491.721,309.41 L481.721,299.41 L264.2,299.41 A0,0 0 0 0 264.2,299.41" fill="#FEFFDD" style="stroke:#181818;stroke-width:0.5;"/><path d="M481.721,299.41 L481.721,309.41 L491.721,309.41 L481.721,299.41" fill="#FEFFDD" style="stroke:#181818;stroke-width:0.5;"/><text fill="#000000" font-family="sans-serif" font-size="13" lengthAdjust="spacing" textLength="165.8706" x="270.2" y="316.4769">&#1050;&#1091;&#1088;&#1089;&#1099; &#1089; &#1080;&#1085;&#1092;&#1086;&#1088;&#1084;&#1072;&#1094;&#1080;&#1077;&#1081; &#1086;</text><text fill="#000000" font-family="sans-serif" font-size="13" lengthAdjust="spacing" textLength="206.521" x="270.2" y="331.6097">&#1082;&#1072;&#1090;&#1077;&#1075;&#1086;&#1088;&#1080;&#1080;, &#1091;&#1088;&#1086;&#1074;&#1085;&#1077; &#1089;&#1083;&#1086;&#1078;&#1085;&#1086;&#1089;&#1090;&#1080;</text><text fill="#000000" font-family="sans-serif" font-size="13" lengthAdjust="spacing" textLength="87.0581" x="270.2" y="346.7425">&#1080; &#1074;&#1080;&#1076;&#1080;&#1084;&#1086;&#1089;&#1090;&#1080;</text></g><g class="entity" data-entity="GMN10" data-source-line="48" data-uid="ent0011" id="entity_GMN10"><path d="M231.28,59.75 L231.28,75.89 L196.97,79.89 L231.28,83.89 L231.28,100.0156 A0,0 0 0 0 231.28,100.0156 L456.6301,100.0156 A0,0 0 0 0 456.6301,100.0156 L456.6301,69.75 L446.6301,59.75 L231.28,59.75 A0,0 0 0 0 231.28,59.75" fill="#FEFFDD" style="stroke:#181818;stroke-width:0.5;"/><path d="M446.6301,59.75 L446.6301,69.75 L456.6301,69.75 L446.6301,59.75" fill="#FEFFDD" style="stroke:#181818;stroke-width:0.5;"/><text fill="#000000" font-family="sans-serif" font-size="13" lengthAdjust="spacing" textLength="204.3501" x="237.28" y="76.8169">&#1059;&#1088;&#1086;&#1082;&#1080;, &#1087;&#1088;&#1080;&#1074;&#1103;&#1079;&#1072;&#1085;&#1085;&#1099;&#1077; &#1082; &#1082;&#1091;&#1088;&#1089;&#1072;&#1084;</text><text fill="#000000" font-family="sans-serif" font-size="13" lengthAdjust="spacing" textLength="121.1641" x="237.28" y="91.9497">&#1089; JSON &#1082;&#1086;&#1085;&#1090;&#1077;&#1085;&#1090;&#1086;&#1084;</text></g><g class="entity" data-entity="GMN13" data-source-line="53" data-uid="ent0014" id="entity_GMN13"><path d="M226.76,537.33 L226.76,545.89 L192.55,549.89 L226.76,553.89 L226.76,562.4628 A0,0 0 0 0 226.76,562.4628 L371.1521,562.4628 A0,0 0 0 0 371.1521,562.4628 L371.1521,547.33 L361.1521,537.33 L226.76,537.33 A0,0 0 0 0 226.76,537.33" fill="#FEFFDD" style="stroke:#181818;stroke-width:0.5;"/><path d="M361.1521,537.33 L361.1521,547.33 L371.1521,547.33 L361.1521,537.33" fill="#FEFFDD" style="stroke:#181818;stroke-width:0.5;"/><text fill="#000000" font-family="sans-serif" font-size="13" lengthAdjust="spacing" textLength="123.3921" x="232.76" y="554.3969">&#1050;&#1072;&#1090;&#1077;&#1075;&#1086;&#1088;&#1080;&#1080; &#1082;&#1091;&#1088;&#1089;&#1086;&#1074;</text></g><!--link course_b to category_d--><g class="link" data-entity-1="course_b" data-entity-2="category_d" data-source-line="38" data-uid="lnk5" id="link_course_b_category_d"><path codeLine="38" d="M117.96,442.63 C117.96,469.09 117.96,463.62 117.96,486.03" fill="none" id="course_b-category_d" style="stroke:#181818;stroke-width:1;"/><line style="stroke:#181818;stroke-width:1;" x1="117.96" x2="111.96" y1="432.63" y2="424.63"/><line style="stroke:#181818;stroke-width:1;" x1="117.96" x2="123.96" y1="432.63" y2="424.63"/><line style="stroke:#181818;stroke-width:1;" x1="117.96" x2="117.96" y1="432.63" y2="424.63"/><ellipse cx="117.96" cy="438.63" fill="none" rx="4" ry="4" style="stroke:#181818;stroke-width:1;"/><line style="stroke:#181818;stroke-width:1;" x1="117.96" x2="117.96" y1="490.03" y2="501.03"/><ellipse cx="117.96" cy="490.03" fill="none" rx="4" ry="4" style="stroke:#181818;stroke-width:1;"/><line style="stroke:#181818;stroke-width:1;" x1="121.96" x2="113.96" y1="497.03" y2="497.03"/><text fill="#000000" font-family="sans-serif" font-size="13" lengthAdjust="spacing" textLength="75.8164" x="118.96" y="467.5169">category_id</text></g><!--link lesson_d to course_b--><g class="link" data-entity-1="lesson_d" data-entity-2="course_b" data-source-line="39" data-uid="lnk6" id="link_lesson_d_course_b"><path codeLine="39" d="M117.96,171.14 C117.96,195.01 117.96,195.97 117.96,221.38" fill="none" id="lesson_d-course_b" style="stroke:#181818;stroke-width:1;"/><line style="stroke:#181818;stroke-width:1;" x1="117.96" x2="111.96" y1="161.14" y2="153.14"/><line style="stroke:#181818;stroke-width:1;" x1="117.96" x2="123.96" y1="161.14" y2="153.14"/><line style="stroke:#181818;stroke-width:1;" x1="117.96" x2="117.96" y1="161.14" y2="153.14"/><ellipse cx="117.96" cy="167.14" fill="none" rx="4" ry="4" style="stroke:#181818;stroke-width:1;"/><line style="stroke:#181818;stroke-width:1;" x1="121.96" x2="113.96" y1="225.38" y2="225.38"/><line style="stroke:#181818;stroke-width:1;" x1="121.96" x2="113.96" y1="222.38" y2="222.38"/><line style="stroke:#181818;stroke-width:1;" x1="117.96" x2="117.96" y1="221.38" y2="229.38"/><text fill="#000000" font-family="sans-serif" font-size="13" lengthAdjust="spacing" textLength="61.8198" x="118.96" y="195.8469">course_id</text></g><!--SRC=[dL9DRzD04BtxLqp3fP4SSRUYI5noe19KWdjbUoV9WkCDk-ie4QtK5iIb1-vS-GDLQS64nFo5tN_4h8q_6b4XrR9NcfatxxsPzG732KyHT1WbUBZgGvo4Ii4AXaCuVEq_6O-VqTE7qSWx-0jTI3uFvVhaBQvTmp0QhOPFexO-4HBvD6tgtDNvoFDcd27CKSy4KrMWD4eKUhr0vNcLXLXaKk59r8Vt7jpJugmVG9PnHjwEZyWGWEOwmG2MeOndeQG4GnLBlj1Sf05eN6dA9RZ4f0lg6en3ZLD12btsSSM-v8f7FE5wtUqU3EWuFWeW5HhIB4byo5B-BiDMYe3CfqaPp-O-OAZMUsnCXXFjmoAB4XxxRieb-V3EcYNKhjZZrl2mnqOYGQL4-bY1UokiRkmV2un5gZ7L0RmXgV-iRjn9EvVrVm1dOZ0Gfz2k10BeTQwjvzMZbD1JWjQj3bYRwtaUqID8Ffrf49C6HThcY_rWp-s5lG9x0IOtE_lH5FRSRCsr_KJndVa9fW07tL3gaXBVIa1kSXzSiodCZTcPEo8mloZuJa51Z9ScTrqvK3atj_Hjcpocp8sC-yxgULpZrv9wusJCxrBmndusFymryU_i5GcQ3RsLVyfkgObcUFxgvGldjI2GS-lEWeeFIRRRBTUnFsEhG6Cs97y0]--></g></svg>